<svg preserveAspectRatio="none" width="100%" height="100%" overflow="visible" style="display: block;" viewBox="0 0 36 36" fill="none" xmlns="http://www.w3.org/2000/svg">
<path id="Vector" d="M18 8.757C16.1719 8.757 14.3849 9.29909 12.8649 10.3147C11.3449 11.3304 10.1602 12.7739 9.46058 14.4629C8.761 16.1518 8.57796 18.0103 8.9346 19.8032C9.29124 21.5962 10.1716 23.2431 11.4642 24.5358C12.7569 25.8284 14.4038 26.7088 16.1968 27.0654C17.9897 27.422 19.8482 27.239 21.5371 26.5394C23.2261 25.8398 24.6696 24.6551 25.6853 23.1351C26.7009 21.6151 27.243 19.8281 27.243 18C27.243 15.5486 26.2692 13.1976 24.5358 11.4642C22.8024 9.73081 20.4514 8.757 18 8.757ZM18 24.0012C16.8131 24.0012 15.6528 23.6492 14.6659 22.9898C13.679 22.3304 12.9098 21.3931 12.4556 20.2966C12.0014 19.2 11.8826 17.9933 12.1141 16.8292C12.3457 15.6651 12.9172 14.5958 13.7565 13.7565C14.5958 12.9172 15.6651 12.3457 16.8292 12.1141C17.9933 11.8826 19.2 12.0014 20.2966 12.4556C21.3931 12.9098 22.3304 13.679 22.9898 14.6659C23.6492 15.6528 24.0012 16.8131 24.0012 18C24.0012 19.5916 23.3689 21.118 22.2435 22.2435C21.118 23.3689 19.5916 24.0012 18 24.0012ZM29.7702 8.3916C29.7702 8.81881 29.6435 9.23642 29.4062 9.59163C29.1688 9.94684 28.8315 10.2237 28.4368 10.3872C28.0421 10.5507 27.6078 10.5934 27.1888 10.5101C26.7698 10.4268 26.3849 10.221 26.0829 9.91895C25.7808 9.61687 25.575 9.23199 25.4917 8.81299C25.4084 8.394 25.4511 7.95969 25.6146 7.565C25.7781 7.17031 26.055 6.83297 26.4102 6.59563C26.7654 6.35828 27.183 6.2316 27.6102 6.2316C28.1831 6.2316 28.7325 6.45917 29.1376 6.86425C29.5426 7.26933 29.7702 7.81873 29.7702 8.3916ZM35.0568 6.21C34.6039 5.00873 33.8951 3.92037 32.9796 3.0204C32.0813 2.10492 30.994 1.39662 29.7936 0.945C28.3947 0.420789 26.9168 0.138361 25.4232 0.1098C23.5044 0.0216002 22.8906 0 18 0C13.1094 0 12.4974 0.0198002 10.5768 0.1098C9.08381 0.138843 7.60661 0.421259 6.2082 0.945C5.00794 1.39693 3.92068 2.10519 3.0222 3.0204C2.10509 3.91907 1.39606 5.00781 0.945 6.21C0.421461 7.60846 0.139052 9.08564 0.1098 10.5786C0.0198002 12.4974 0 13.1112 0 18C0 22.8888 0.0198002 23.5026 0.1098 25.4214C0.139052 26.9144 0.421461 28.3915 0.945 29.79C1.39606 30.9922 2.10509 32.0809 3.0222 32.9796C3.92175 33.8944 5.00949 34.6025 6.21 35.055C7.60851 35.5784 9.08565 35.8608 10.5786 35.8902C12.4992 35.9784 13.113 36 18 36C22.887 36 23.5026 35.9802 25.4214 35.8902C26.915 35.8611 28.3928 35.5787 29.7918 35.055C30.9877 34.5926 32.0738 33.8854 32.9805 32.9787C33.8872 32.072 34.5944 30.9859 35.0568 29.79C35.5812 28.3918 35.8637 26.9145 35.892 25.4214C35.9802 23.5008 36 22.8888 36 18C36 13.1112 35.9802 12.4974 35.892 10.5786C35.863 9.08561 35.5805 7.60841 35.0568 6.21ZM32.6538 25.2738C32.6431 26.4162 32.4354 27.5482 32.04 28.62C31.7407 29.3975 31.2817 30.1036 30.6926 30.6926C30.1036 31.2817 29.3975 31.7407 28.62 32.04C27.5494 32.436 26.4188 32.6454 25.2774 32.6592C23.3802 32.7456 22.8096 32.7636 18.0018 32.7636C13.194 32.7636 12.627 32.7456 10.7298 32.6592C9.58597 32.6462 8.45288 32.4368 7.38 32.04C6.59811 31.7514 5.89079 31.2914 5.31 30.6936C4.71186 30.1131 4.25174 29.4057 3.9636 28.6236C3.56581 27.5535 3.35631 26.4226 3.3444 25.281C3.2616 23.3766 3.24 22.8078 3.24 18C3.24 13.1922 3.258 12.6252 3.3444 10.7262C3.35971 9.58329 3.57097 8.45147 3.969 7.38C4.25758 6.59811 4.71764 5.89079 5.3154 5.31C5.89317 4.71028 6.59892 4.24879 7.38 3.96C8.45225 3.56405 9.58502 3.35698 10.728 3.348C12.6252 3.2598 13.1958 3.24 18 3.24C22.8042 3.24 23.3766 3.2598 25.2756 3.3462C26.4173 3.35825 27.5484 3.56586 28.62 3.96C29.3975 4.25927 30.1036 4.71827 30.6926 5.30735C31.2817 5.89644 31.7407 6.60252 32.04 7.38C32.4378 8.45011 32.6473 9.58101 32.6592 10.7226C32.742 12.6252 32.76 13.194 32.76 18C32.76 22.806 32.742 23.3748 32.6538 25.2738Z" fill="var(--fill-0, #EDCC8A)"/>
</svg>
