<svg preserveAspectRatio="none" width="100%" height="100%" overflow="visible" style="display: block;" viewBox="0 0 872 555.207" fill="none" xmlns="http://www.w3.org/2000/svg">
<g id="Group 1">
<g id="Union">
<path d="M10.0767 1.40984C16.2018 0.479653 22.4468 3.8147e-05 28.7866 3.8147e-05C35.1256 3.8147e-05 41.3701 0.479557 47.4946 1.40956C53.1698 2.27135 57.2122 7.83718 57.5487 14.2798C56.5868 13.9041 55.5673 13.6548 54.501 13.5513C50.4015 13.1533 46.2559 12.9505 42.0713 12.9505C37.8868 12.9505 33.7413 13.1533 29.6418 13.5513C22.6793 14.2272 17.7143 21.1167 17.7143 28.8647V43.6644C17.7143 49.503 20.5329 54.8499 24.8968 57.4234L17.0657 66.5836C16.4325 67.3244 15.4801 67.546 14.6526 67.1451C13.8252 66.7442 13.2857 65.7997 13.2857 64.7522V50.8366C12.2125 50.7021 11.1428 50.5539 10.0767 50.392C4.1471 49.4915 0 43.4558 0 36.6502V15.1516C0 8.34605 4.14708 2.31034 10.0767 1.40984Z" fill="var(--fill-0, #0046D8)"/>
<path d="M42.0713 18.1306C38.0092 18.1306 33.9859 18.3275 30.0082 18.7137C25.4636 19.1549 22.1429 23.6659 22.1429 28.8647V43.6644C22.1429 48.8711 25.473 53.3845 30.0234 53.819C33.6957 54.1696 37.4068 54.3614 41.1514 54.3885L49.3628 63.9935C49.9961 64.7343 50.9485 64.9559 51.7759 64.555C52.6034 64.1541 53.1429 63.2097 53.1429 62.1621V53.9087C53.4686 53.8802 53.7941 53.8504 54.1193 53.8193C58.6697 53.385 62 48.8714 62 43.6647V28.8647C62 23.6659 58.6793 19.1549 54.1347 18.7137C50.1568 18.3275 46.1335 18.1306 42.0713 18.1306Z" fill="var(--fill-0, #0046D8)"/>
</g>
<g id="Subtract">
<path d="M838.615 6.66618C833.797 3.08967 828.067 1.01475 821.923 1.01475C818.304 1.01475 814.825 1.73499 811.59 3.0609C810.637 3.45144 810 4.49607 810 5.66798V58.2055C810 59.1031 810.376 59.9449 811.008 60.4631C811.64 60.9814 812.449 61.1117 813.179 60.8126C815.911 59.693 818.853 59.0825 821.923 59.0825C828.266 59.0825 834.079 61.6901 838.615 66.0349V6.66618Z" fill="var(--fill-0, #0046D8)"/>
<path d="M843.385 66.0349C847.921 61.6901 853.734 59.0825 860.077 59.0825C863.147 59.0825 866.089 59.693 868.821 60.8126C869.551 61.1117 870.36 60.9814 870.992 60.4631C871.624 59.9449 872 59.1031 872 58.2055V5.66798C872 4.49607 871.363 3.45144 870.41 3.0609C867.175 1.73499 863.696 1.01475 860.077 1.01475C853.933 1.01475 848.203 3.08967 843.385 6.66618V66.0349Z" fill="var(--fill-0, #0046D8)"/>
</g>
<g id="Vector">
<path d="M31 473C15.536 473 3 486.495 3 503.143C3 514.289 8.62143 524.019 16.9666 529.231C19.293 530.684 20.7498 532.914 20.8157 535.158C20.8521 536.395 21.655 537.453 22.7745 537.738C23.967 538.041 25.1823 538.28 26.4168 538.451C27.5151 538.603 28.4552 537.656 28.4552 536.464V519.434C27.3715 519.305 26.3097 519.094 25.2752 518.808C23.9138 518.431 23.0942 516.937 23.4446 515.471C23.795 514.005 25.1827 513.123 26.5442 513.5C27.9656 513.894 29.4583 514.104 31.0006 514.104C32.5429 514.104 34.0356 513.894 35.4571 513.5C36.8185 513.123 38.2062 514.005 38.5566 515.471C38.907 516.937 38.0874 518.431 36.726 518.808C35.6916 519.094 34.6297 519.305 33.5461 519.434V536.463C33.5461 537.656 34.4862 538.603 35.5845 538.451C36.8186 538.28 38.0334 538.041 39.2256 537.738C40.345 537.453 41.1479 536.395 41.1843 535.158C41.2502 532.914 42.707 530.684 45.0334 529.231C53.3786 524.019 59 514.289 59 503.143C59 486.495 46.464 473 31 473Z" fill="var(--fill-0, #0046D8)"/>
<path fill-rule="evenodd" clip-rule="evenodd" d="M20.8628 542.966C21.1248 541.479 22.4568 540.502 23.838 540.784C26.156 541.258 28.5499 541.506 31 541.506C33.4501 541.506 35.844 541.258 38.162 540.784C39.5432 540.502 40.8752 541.479 41.1372 542.966C41.3992 544.453 40.492 545.887 39.1108 546.169C36.4816 546.706 33.7701 546.986 31 546.986C28.23 546.986 25.5184 546.706 22.8892 546.169C21.5081 545.887 20.6008 544.453 20.8628 542.966Z" fill="var(--fill-0, #0046D8)"/>
<path fill-rule="evenodd" clip-rule="evenodd" d="M23.3775 551.897C23.5237 550.391 24.7757 549.299 26.1739 549.456C27.7592 549.635 29.3692 549.726 31 549.726C32.6308 549.726 34.2408 549.635 35.8261 549.456C37.2243 549.299 38.4763 550.391 38.6225 551.897C38.7688 553.402 37.7539 554.75 36.3557 554.907C34.5949 555.105 32.808 555.207 31 555.207C29.192 555.207 27.4051 555.105 25.6443 554.907C24.2461 554.75 23.2312 553.402 23.3775 551.897Z" fill="var(--fill-0, #0046D8)"/>
</g>
<path id="Vector (Stroke)" fill-rule="evenodd" clip-rule="evenodd" d="M831.116 479C832.411 479 833.462 480.22 833.462 481.724V487.193C836.228 487.241 838.977 487.375 841.706 487.593C844.551 487.819 847.375 488.137 850.175 488.542C851.46 488.728 852.373 490.089 852.213 491.582C852.052 493.075 850.88 494.134 849.594 493.948C847.531 493.65 845.455 493.4 843.366 493.201C841.518 501.59 838.329 509.355 834.081 516.168C835.072 517.56 836.114 518.902 837.204 520.189C838.112 521.262 838.099 522.987 837.175 524.041C836.251 525.096 834.765 525.081 833.857 524.008C832.909 522.889 831.995 521.731 831.115 520.538C826.201 527.205 820.196 532.755 813.423 536.817C812.272 537.508 810.857 536.984 810.262 535.647C809.667 534.311 810.119 532.667 811.27 531.977C817.782 528.071 823.521 522.671 828.15 516.168C825.441 511.823 823.162 507.09 821.388 502.055C820.897 500.663 821.471 499.072 822.67 498.503C823.869 497.933 825.239 498.6 825.73 499.992C827.176 504.095 828.987 507.98 831.115 511.595C834.447 505.938 837 499.616 838.596 492.836C836.118 492.693 833.624 492.62 831.116 492.62C824.857 492.62 818.689 493.072 812.637 493.948C811.351 494.134 810.179 493.075 810.019 491.582C809.858 490.089 810.771 488.728 812.056 488.542C817.543 487.748 823.119 487.292 828.769 487.193V481.724C828.769 480.22 829.82 479 831.116 479ZM852.231 503.517C853.142 503.517 853.971 504.13 854.357 505.089L870.779 545.949C871.327 547.312 870.82 548.933 869.645 549.57C868.471 550.206 867.075 549.616 866.527 548.253L862.78 538.929H841.681L837.934 548.253C837.386 549.616 835.99 550.206 834.816 549.57C833.641 548.933 833.134 547.312 833.682 545.949L850.105 505.089C850.49 504.13 851.319 503.517 852.231 503.517ZM843.871 533.481H860.59L852.231 512.682L843.871 533.481Z" fill="var(--fill-0, #0046D8)"/>
</g>
</svg>
