<svg preserveAspectRatio="none" width="100%" height="100%" overflow="visible" style="display: block;" viewBox="0 0 182 186" fill="none" xmlns="http://www.w3.org/2000/svg">
<g id="Button">
<rect x="0.5" y="0.5" width="181" height="185" rx="90.5" fill="var(--fill-0, #EDCC8A)"/>
<rect x="0.5" y="0.5" width="181" height="185" rx="90.5" stroke="var(--stroke-0, #F1F1F3)"/>
<path id="Vector (Stroke)" fill-rule="evenodd" clip-rule="evenodd" d="M76.231 38C78.2701 38 79.9232 39.6531 79.9232 41.6923V49.1047C84.277 49.1703 88.603 49.352 92.8983 49.6467C97.3754 49.9539 101.819 50.3839 106.226 50.9334C108.249 51.1858 109.685 53.0307 109.433 55.0542C109.18 57.0777 107.336 58.5136 105.312 58.2612C102.065 57.8564 98.7975 57.5184 95.5103 57.2487C92.6019 68.6198 87.5835 79.1435 80.8977 88.3792C82.4575 90.2661 84.0973 92.0846 85.8121 93.8294C87.2414 95.2838 87.2211 97.6215 85.7667 99.0509C84.3123 100.48 81.9746 100.46 80.5453 99.0055C79.0542 97.4883 77.6151 95.9197 76.2309 94.3025C68.4963 103.339 59.0468 110.861 48.3876 116.368C46.5759 117.304 44.3486 116.594 43.4126 114.782C42.4767 112.97 43.1867 110.743 44.9984 109.807C55.247 104.513 64.2785 97.193 71.5643 88.3792C67.3006 82.4892 63.7146 76.0748 60.9215 69.2501C60.1491 67.3629 61.0529 65.2068 62.9401 64.4344C64.8273 63.662 66.9834 64.5658 67.7557 66.453C70.0317 72.0142 72.8812 77.2811 76.2309 82.1801C81.4734 74.5128 85.4911 65.9433 88.0029 56.754C84.1037 56.5597 80.179 56.4614 76.231 56.4614C66.3807 56.4614 56.6752 57.0734 47.1499 58.2612C45.1264 58.5136 43.2815 57.0777 43.0291 55.0542C42.7768 53.0307 44.2126 51.1858 46.2361 50.9334C54.8708 49.8567 63.6468 49.2388 72.5387 49.1047V41.6923C72.5387 39.6531 74.1918 38 76.231 38ZM109.461 71.2305C110.896 71.2305 112.2 72.0614 112.807 73.3613L138.653 128.745C139.515 130.593 138.716 132.79 136.868 133.653C135.02 134.515 132.823 133.716 131.961 131.868L126.063 119.23H92.8591L86.9613 131.868C86.099 133.716 83.9019 134.515 82.0541 133.653C80.2062 132.79 79.4073 130.593 80.2696 128.745L106.115 73.3613C106.722 72.0614 108.027 71.2305 109.461 71.2305ZM96.3052 111.845H122.617L109.461 83.6539L96.3052 111.845Z" fill="var(--fill-0, #063087)"/>
</g>
</svg>
