<svg preserveAspectRatio="none" width="100%" height="100%" overflow="visible" style="display: block;" viewBox="0 0 182 186" fill="none" xmlns="http://www.w3.org/2000/svg">
<g id="Button">
<rect x="0.5" y="0.5" width="181" height="185" rx="90.5" fill="var(--fill-0, #EDCC8A)"/>
<rect x="0.5" y="0.5" width="181" height="185" rx="90.5" stroke="var(--stroke-0, #F1F1F3)"/>
<g id="Union">
<path d="M69.6811 121.333C67.7199 121.333 65.8941 120.282 65.1765 118.526C63.6333 114.75 62.7857 110.637 62.7857 106.333C62.7857 98.5596 65.5513 91.4074 70.1874 85.738C70.8845 84.8856 71.9063 84.3648 72.9575 83.9732C75.1415 83.1596 77.0703 81.6875 78.5556 79.8652C82.1269 75.4837 86.6278 71.8373 91.7727 69.201C95.1083 67.4917 98.0027 64.9524 99.4062 61.5762C100.388 59.2138 100.893 56.6927 100.893 54.1484V51.3333C100.893 49.4924 102.444 48 104.357 48C110.097 48 114.75 52.4772 114.75 58C114.75 63.1184 113.551 67.9673 111.409 72.3009C110.182 74.7824 111.903 78 114.759 78H129.197C133.939 78 138.184 81.0844 138.686 85.6216C138.894 87.4982 139 89.4038 139 91.3333C139 103.989 134.418 115.616 126.764 124.761C124.974 126.9 122.206 128 119.352 128H100.802C98.5675 128 96.3481 127.653 94.2286 126.974L79.8428 122.36C77.7234 121.68 75.5039 121.333 73.2698 121.333H69.6811Z" fill="var(--fill-0, #063087)"/>
<path d="M45.8407 86.7872C43.3617 92.8397 42 99.4335 42 106.333C42 111.756 42.8411 116.989 44.4045 121.92C45.6025 125.698 49.4098 128 53.5148 128H57.7079C59.7658 128 61.0368 125.785 60.1262 124.01C57.3929 118.68 55.8571 112.679 55.8571 106.333C55.8571 98.7414 58.0553 91.6435 61.8725 85.5967C63.0042 83.8041 61.742 81.3333 59.5622 81.3333H54.6994C50.8563 81.3333 47.2498 83.3468 45.8407 86.7872Z" fill="var(--fill-0, #063087)"/>
</g>
</g>
</svg>
