<svg preserveAspectRatio="none" width="100%" height="100%" overflow="visible" style="display: block;" viewBox="0 0 182 186" fill="none" xmlns="http://www.w3.org/2000/svg">
<g id="Button">
<rect x="0.5" y="0.5" width="181" height="185" rx="90.5" fill="var(--fill-0, #EDCC8A)"/>
<rect x="0.5" y="0.5" width="181" height="185" rx="90.5" stroke="var(--stroke-0, #F1F1F3)"/>
<path id="Subtract" fill-rule="evenodd" clip-rule="evenodd" d="M43 87C43 60.4903 64.4903 39 91 39C117.51 39 139 60.4903 139 87C139 113.51 117.51 135 91 135C64.4903 135 43 113.51 43 87ZM108.774 78.0692C109.959 76.4098 109.575 74.1038 107.915 72.9185C106.256 71.7333 103.95 72.1176 102.765 73.777L86.8365 96.0764L78.8416 88.0815C77.3997 86.6395 75.0618 86.6395 73.6199 88.0815C72.178 89.5234 72.178 91.8612 73.6199 93.3032L84.6968 104.38C85.4643 105.148 86.5306 105.538 87.6122 105.449C88.6939 105.359 89.6814 104.799 90.3122 103.915L108.774 78.0692Z" fill="var(--fill-0, #063087)"/>
</g>
</svg>
