<svg preserveAspectRatio="none" width="100%" height="100%" overflow="visible" style="display: block;" viewBox="0 0 91 91" fill="none" xmlns="http://www.w3.org/2000/svg">
<g id="Union">
<path d="M14.79 1.90508C23.78 0.648106 32.9462 0 42.2512 0C51.5554 0 60.7206 0.647977 69.7098 1.9047C78.0396 3.06923 83.9728 10.5904 84.4667 19.2964C83.0548 18.7886 81.5585 18.4518 79.9934 18.3119C73.9763 17.7741 67.8917 17.5 61.7498 17.5C55.6081 17.5 49.5236 17.7741 43.5066 18.3119C33.2874 19.2253 26 28.5351 26 39.0049V59.0038C26 66.8936 30.1369 74.1189 36.5421 77.5966L25.0481 89.9748C24.1186 90.9758 22.7207 91.2752 21.5063 90.7335C20.2918 90.1917 19.5 88.9155 19.5 87.4999V68.6957C17.9248 68.5141 16.3547 68.3137 14.79 68.095C6.08687 66.8781 0 58.722 0 49.5256V20.4744C0 11.278 6.08685 3.12193 14.79 1.90508Z" fill="var(--fill-0, #063087)"/>
<path d="M61.7498 24.5C55.7877 24.5 49.8826 24.7661 44.0442 25.2879C37.374 25.8841 32.5 31.9798 32.5 39.0049V59.0038C32.5 66.0397 37.3879 72.1388 44.0666 72.7259C49.4566 73.1997 54.9035 73.4589 60.3996 73.4954L72.4519 86.4748C73.3814 87.4758 74.7793 87.7752 75.9937 87.2335C77.2082 86.6917 78 85.4155 78 83.9999V72.8471C78.4782 72.8085 78.9559 72.7682 79.4331 72.7263C86.112 72.1394 91 66.0402 91 59.0043V39.005C91 31.9798 86.1261 25.8841 79.4558 25.2879C73.6173 24.7661 67.7121 24.5 61.7498 24.5Z" fill="var(--fill-0, #063087)"/>
</g>
</svg>
