<svg preserveAspectRatio="none" width="100%" height="100%" overflow="visible" style="display: block;" viewBox="0 0 36 36" fill="none" xmlns="http://www.w3.org/2000/svg">
<path id="Vector (Stroke)" fill-rule="evenodd" clip-rule="evenodd" d="M0 5.14286C0 2.30254 2.30254 0 5.14286 0H7.49422C8.96915 0 10.2548 1.00381 10.6125 2.43471L12.5082 10.0173C12.8218 11.2719 12.353 12.5924 11.3184 13.3683L9.1008 15.0315C8.87052 15.2043 8.82046 15.4572 8.88514 15.6337C10.8317 20.9477 15.0523 25.1683 20.3663 27.1149C20.5428 27.1795 20.7957 27.1295 20.9685 26.8992L22.6317 24.6816C23.4076 23.647 24.7281 23.1782 25.9827 23.4918L33.5653 25.3875C34.9962 25.7452 36 27.0309 36 28.5058V30.8571C36 33.6975 33.6975 36 30.8571 36H27C12.0883 36 0 23.9117 0 9V5.14286Z" fill="var(--fill-0, #EDCC8A)"/>
</svg>
