<svg preserveAspectRatio="none" width="100%" height="100%" overflow="visible" style="display: block;" viewBox="0 0 163 138" fill="none" xmlns="http://www.w3.org/2000/svg">
<path id="Vector" d="M23.8112 53.683C21.7807 69.2436 20.5474 85.0552 20.1534 101.075C41.7362 110.103 62.2639 121.157 81.4998 134C100.736 121.157 121.263 110.103 142.846 101.075C142.452 85.0553 141.219 69.2438 139.188 53.6833M23.8112 53.683C17.2848 51.4853 10.6794 49.4602 4.00013 47.6131C28.1869 30.628 54.1292 15.9811 81.5001 4C108.871 15.9811 134.813 30.6281 159 47.6132C152.321 49.4603 145.715 51.4855 139.188 53.6833M23.8112 53.683C43.8382 60.4272 63.12 68.7971 81.5001 78.6361C99.8801 68.7972 119.162 60.4274 139.188 53.6833M42.3733 89.9208C45.4603 89.9208 47.9628 87.4136 47.9628 84.3209C47.9628 81.2281 45.4603 78.721 42.3733 78.721C39.2863 78.721 36.7838 81.2281 36.7838 84.3209C36.7838 87.4136 39.2863 89.9208 42.3733 89.9208ZM42.3733 89.9208V62.4773C54.9793 54.6301 68.0375 47.4432 81.4998 40.9649M29.2763 127.198C38.0076 118.451 42.3733 106.986 42.3733 95.5207V84.3209" stroke="var(--stroke-0, #063087)" stroke-width="8" stroke-linecap="round" stroke-linejoin="round"/>
</svg>
