<svg xmlns="http://www.w3.org/2000/svg" viewBox="0 0 280 200">
  <defs>
    <linearGradient id="bg3" x1="0" y1="0" x2="1" y2="1"><stop offset="0%" stop-color="#e6ffed"/><stop offset="100%" stop-color="#d4f5df"/></linearGradient>
  </defs>
  <rect width="280" height="200" rx="16" fill="url(#bg3)"/>
  <!-- Thumbs up hand -->
  <rect x="105" y="80" width="70" height="55" rx="14" fill="#f5a623"/>
  <rect x="120" y="48" width="22" height="50" rx="10" fill="#f5a623"/>
  <!-- Sparkles -->
  <circle cx="80" cy="60" r="5" fill="#48bb78" opacity="0.7"/>
  <circle cx="200" cy="50" r="4" fill="#48bb78" opacity="0.5"/>
  <circle cx="185" cy="80" r="3" fill="#f5a623" opacity="0.6"/>
  <!-- Stars -->
  <path d="M70 90 l3 6 7 1-5 5 1 7-6-3-6 3 1-7-5-5 7-1z" fill="#48bb78" opacity="0.4"/>
  <path d="M210 65 l2 4 5 1-4 3 1 5-4-2-4 2 1-5-4-3 5-1z" fill="#48bb78" opacity="0.4"/>
  <!-- Check mark -->
  <circle cx="140" cy="160" r="16" fill="#48bb78" opacity="0.2"/>
  <path d="M130 160 L137 167 L152 152" fill="none" stroke="#48bb78" stroke-width="3" stroke-linecap="round" stroke-linejoin="round"/>
</svg>